<?xml version="1.0" encoding="UTF-8"?>
<svg id="Layer_1" data-name="Layer 1" xmlns="http://www.w3.org/2000/svg" viewBox="0 0 521.53 160.69">
  <defs>
    <style>
      .cls-1 {
        fill: none;
      }

      .cls-2 {
        fill: #231f20;
      }
    </style>
  </defs>
  <g>
    <path class="cls-2" d="M188,141.47c-4.32-.61-8.62-1.78-12.82-3.56l5.47-12.89c18.78,7.97,40.54-.82,48.52-19.6l29.7-69.96c10.99-25.89,41-38,66.87-27.02l-5.47,12.89c-18.78-7.97-40.54.82-48.52,19.6l-29.7,69.96c-9.21,21.69-31.76,33.71-54.06,30.58Z"/>
    <path class="cls-2" d="M182.93,91.63c-24.85,0-45.07-20.22-45.07-45.07S158.08,1.49,182.93,1.49s45.07,20.22,45.07,45.07-20.22,45.07-45.07,45.07ZM182.93,13.63c-18.16,0-32.93,14.77-32.93,32.93s14.77,32.93,32.93,32.93,32.93-14.77,32.93-32.93-14.77-32.93-32.93-32.93Z"/>
    <path class="cls-2" d="M334.45,38.97l5.78,29.74c-9.59-6.54-21.69-9.4-33.96-7.02-24.39,4.74-40.38,28.45-35.64,52.84,4.74,24.39,28.45,40.38,52.84,35.64,12.27-2.39,22.42-9.57,28.86-19.23l5.78,29.74,13.74-2.67-23.66-121.72-13.74,2.67ZM321.15,138.26c-17.83,3.47-35.14-8.22-38.61-26.04-3.47-17.83,8.22-35.14,26.04-38.61,15.2-2.95,30.01,5.1,36.21,18.57,1.08,2.34,1.89,4.84,2.4,7.47s.7,5.25.57,7.82c-.7,14.82-11.42,27.83-26.61,30.78Z"/>
    <path class="cls-2" d="M379,19.49c-4.96,0-9-4.04-9-9s4.04-9,9-9,9,4.04,9,9-4.04,9-9,9ZM379,10.49h0s0,0,0,0Z"/>
    <path class="cls-2" d="M521.53,75.16c-3.12,11.63-10.57,21.35-21,27.37-10.42,6.02-22.57,7.62-34.2,4.5-11.62-3.11-21.34-10.58-27.36-20.99-3.01-5.22-4.92-10.86-5.67-16.65-.76-5.79-.38-11.74,1.18-17.55,3.11-11.62,10.56-21.34,20.99-27.36,10.42-6.03,22.57-7.62,34.19-4.5l-3.15,11.71c-8.49-2.27-17.37-1.1-24.98,3.3-7.62,4.39-13.08,11.5-15.35,19.98-2.28,8.51-1.1,17.38,3.29,25,4.4,7.62,11.5,13.07,19.99,15.35,8.5,2.28,17.38,1.1,24.99-3.3,7.62-4.39,13.08-11.5,15.36-20l11.71,3.14Z"/>
    <rect class="cls-2" x="354.39" y="83" width="96" height="14" transform="translate(257.26 475.95) rotate(-82)"/>
    <g>
      <polygon class="cls-2" points="75.77 136.49 35.58 60.27 13.3 127.94 0 123.56 32.6 24.59 72.78 100.8 100.22 17.48 148.1 108.27 135.71 114.8 103.21 53.16 75.77 136.49"/>
      <polygon class="cls-2" points="66.58 34.96 44.09 4 82.15 0 66.58 34.96"/>
    </g>
    <circle class="cls-2" cx="187.55" cy="63.5" r="9.5"/>
    <circle class="cls-2" cx="305.37" cy="117.25" r="9.5"/>
    <rect class="cls-2" x="130.64" y="129.96" width="24" height="24" transform="translate(90.09 -52.3) rotate(30)"/>
    <polygon class="cls-2" points="432.16 118.99 432.16 153.99 462.47 136.49 432.16 118.99"/>
  </g>
  <rect class="cls-1" width="521.53" height="160.69"/>
</svg>